:SAMPLES-PER-SECOND 30
:FULLY-SPECIFIED
:DEGREES
444
root  -11.1438 39.2031 -25.0373 74.3877 -88.0933 -81.4097
RightUpLeg  -6.65644 -11.2815 -3.13418
RightLeg  17.4227 3.80396 2.79785
RightFoot  -2.75588 -0.118255 1.32226
RightToes  2.96859e-009 0 -3.6325e-017
Spine  6.89285 -1.59746 13.3069
Spine1  7.69193 0.445228 -2.22974
HEad  1.11273 9.23663 -5.4715
LeftShoulder1  -0.0257393 3.57409 -30.5383
LeftArm  2.79651 14.8292 -42.0209
LeftForeArm  22.9542 -28.5281 -4.91701
LeftHand  -0.0616269 0.0689367 1.35001
RightShoulder  -0.608015 -5.3646 25.9508
RightArm  21.8696 -2.30618 45.4392
RightForeArm  -2.85211 19.4031 5.40553
RightHand  -0.5363 2.76624 -7.84739
LeftUpLeg  -7.99562 1.50126 5.70052
LeftLeg  58.9664 0.09369 0.724527
LeftFoot  2.64349 0.134445 -1.22757
LeftToes  3.24686e-010 -7.02549e-012 1.39809e-011
445
root  -12.0212 39.4088 -25.3484 45.6703 -88.2528 -52.5636
RightUpLeg  -4.52356 -11.3522 -3.67617
RightLeg  16.207 3.05572 2.90362
RightFoot  -3.51492 -0.0860769 0.914092
RightToes  2.96859e-009 0 -3.6325e-017
Spine  6.46142 -1.09025 14.1842
Spine1  8.40739 1.24556 -3.6443
HEad  1.23936 8.27578 -5.92303
LeftShoulder1  -0.0251162 3.57185 -30.8567
LeftArm  1.51295 15.3859 -41.7919
LeftForeArm  22.4741 -29.2998 -5.12122
LeftHand  -0.0265122 -0.0115551 0.579351
RightShoulder  -0.605001 -5.38201 25.4833
RightArm  23.9766 -0.903165 45.6587
RightForeArm  -3.45184 20.4105 5.30366
RightHand  -0.578617 3.3355 -7.93499
LeftUpLeg  -11.2779 2.75337 4.13272
LeftLeg  56.6689 -0.852695 -0.876791
LeftFoot  0.670988 0.0968378 -0.955416
LeftToes  3.24686e-010 -7.02549e-012 1.39809e-011
446
root  -12.8948 39.5726 -25.628 24.8844 -87.8897 -31.673
RightUpLeg  -2.43497 -11.3222 -3.9986
RightLeg  15.0795 2.40239 2.88545
RightFoot  -4.32402 -0.0852243 0.922885
RightToes  2.96859e-009 0 -3.6325e-017
Spine  6.49606 -0.729423 14.8532
Spine1  8.26584 1.83253 -4.99006
HEad  1.56865 8.16836 -6.63682
LeftShoulder1  -0.0258984 3.57317 -30.6264
LeftArm  1.00303 16.4855 -41.8851
LeftForeArm  22.0869 -29.6472 -5.22349
LeftHand  -0.0380404 0.659026 0.858562
RightShoulder  -0.621746 -5.42517 25.6025
RightArm  25.7354 -0.0967817 45.1485
RightForeArm  -4.17073 21.9813 5.19071
RightHand  -0.545684 2.78573 -7.96123
LeftUpLeg  -13.6829 4.21359 2.54443
LeftLeg  51.8273 -1.40821 -1.48191
LeftFoot  -1.06599 0.0874366 -0.915147
LeftToes  3.24686e-010 -7.02549e-012 1.39809e-011
447
root  -13.7243 39.6821 -25.8899 11.2737 -86.7023 -17.8127
RightUpLeg  -0.577668 -11.329 -4.03042
RightLeg  14.0296 1.08917 2.81439
RightFoot  -5.08717 -0.0782763 0.805302
RightToes  2.96859e-009 0 -3.6325e-017
Spine  6.60315 -0.606482 15.2776
Spine1  7.86958 2.05085 -6.05045
HEad  1.72109 8.71856 -6.96708
LeftShoulder1  0.0233395 3.43791 -30.0095
LeftArm  1.3039 17.3205 -42.2401
LeftForeArm  21.5248 -29.0719 -5.12156
LeftHand  -0.0372486 1.17452 0.867485
RightShoulder  -0.724175 -5.69043 26.4652
RightArm  26.0028 0.418195 43.891
RightForeArm  -4.5103 23.8392 5.30589
RightHand  -0.549043 3.01517 -7.80288
LeftUpLeg  -15.5082 5.60803 1.21203
LeftLeg  44.8684 -1.34824 -1.03998
LeftFoot  -2.17163 0.148923 -1.68871
LeftToes  3.24686e-010 -7.02549e-012 1.39809e-011
448
root  -14.5437 39.8025 -26.1237 6.43408 -85.7425 -12.8691
RightUpLeg  1.53909 -11.0846 -3.93502
RightLeg  12.5875 -0.0605346 2.60575
RightFoot  -5.57953 -0.0746561 0.724376
RightToes  2.96859e-009 0 -3.6325e-017
Spine  6.31556 -0.248788 13.9829
Spine1  8.39153 1.88382 -4.85393
HEad  1.00826 9.98945 -7.89442
LeftShoulder1  -0.0772364 3.71317 -30.8089
LeftArm  2.21091 17.3641 -41.9438
LeftForeArm  20.8381 -27.6403 -4.83206
LeftHand  -0.0296111 0.126089 0.647279
RightShoulder  -0.64082 -5.46718 25.9398
RightArm  24.5629 0.523995 43.6381
RightForeArm  -3.91919 25.0276 5.56053
RightHand  -0.582606 3.26302 -8.04758
LeftUpLeg  -16.0094 8.23931 -0.101429
LeftLeg  35.7514 -0.851573 -0.323572
LeftFoot  -2.02755 0.223929 -2.59106
LeftToes  3.24686e-010 -7.02549e-012 1.39809e-011
